<svg version="1.2" xmlns="http://www.w3.org/2000/svg" viewBox="0 0 1024 1024" width="1024" height="1024"><style>.a{fill:#e90600}.b{fill:#fdfefe}</style><path class="a" d="m399.3 169c-8 0.2-34.1 0.9-57.9 1.7-23.8 0.7-59.4 2.1-79.2 3.1-19.7 1-45.5 2.6-57.2 3.6-11.8 1.1-27.4 2.7-34.8 3.8-7.3 1-18.9 3.1-25.6 4.7-6.7 1.6-16.8 4.6-22.5 6.6-5.7 2.1-13.7 5.7-17.7 7.9-4 2.3-11.4 7.3-16.4 11.3-5.1 4-11.7 10.2-14.8 13.9-3.1 3.6-7.7 9.9-10.3 13.9-2.5 4-6.1 10.6-7.9 14.6-1.9 4.1-5 13.7-7.1 21.4-2 7.7-4.8 20-6.2 27.4-1.3 7.4-3.8 24.3-5.5 37.8-1.6 13.4-3.8 35-4.8 48.1-1.1 13.1-2.5 38.8-3.3 57.3-0.9 20.7-1.1 52.3-0.6 82.8 0.4 27.2 1.6 61.2 2.6 75.6 1 14.4 2.7 34.7 3.7 45.1 1 10.4 3.2 29 4.9 41.4 1.7 12.4 4.5 29.7 6.2 38.4 1.7 8.7 4.8 20.8 6.7 26.8 2 6 5.2 14.3 7.1 18.3 1.9 4 6.7 11.7 10.6 17 4 5.4 10 12.2 13.3 15.1 3.3 2.9 9 7.4 12.7 9.9 3.7 2.5 9.4 5.9 12.8 7.6 3.3 1.7 11 4.8 17 7 6.1 2.1 17.6 5.1 25.6 6.8 8.1 1.6 24.5 4 36.6 5.3 12 1.4 33.7 3.3 48.1 4.3 14.4 1 43.8 2.7 65.2 3.7 21.5 1 57.7 2.4 80.4 3 22.8 0.7 68.3 1.6 101.2 2 33.4 0.5 89.5 0.2 127.3-0.6 37.2-0.7 80.8-1.9 96.9-2.6 16.1-0.6 43-2 59.7-3 16.8-1 39.8-2.7 51.2-3.7 11.4-1 26.5-2.6 33.5-3.7 7-1 18.6-3.1 25.6-4.7 7-1.6 17.5-4.6 23.2-6.6 5.7-2.1 14.8-6.4 20.3-9.6 5.5-3.2 13.3-8.4 17.4-11.6 4-3.2 10.9-10.3 15.3-15.8 4.3-5.6 9.8-13.6 12.1-18 2.3-4.4 5.9-13.1 8-19.5 2-6.4 5.1-18.4 6.8-26.8 1.6-8.4 4.3-25.1 5.9-37.2 1.6-12 4.1-33.4 5.4-47.5 1.4-14.1 3.2-34.9 4.1-46.3 1-13.9 1.5-46.9 1.5-100.5 0-64.7-0.5-84.8-2.2-106.1-1.1-14.4-2.9-33.6-3.9-42.6-1-9.1-2.7-22.2-3.7-29.3-1-7-3.3-19.6-5-28-1.7-8.4-4.5-19.6-6.1-25-1.7-5.3-4.8-13-6.8-17-2-4-5.6-10.3-8.1-14-2.4-3.7-7.9-10.5-12.3-15.1-4.4-4.6-11.2-10.8-15.2-13.6-4.1-2.9-11.2-7.2-15.9-9.5-4.7-2.4-12.6-5.7-17.6-7.4-5.1-1.7-14.3-4.2-20.5-5.5-6.2-1.4-19.9-3.6-30.4-5-10.6-1.3-30.7-3.2-44.8-4.2-14.1-1-36.8-2.4-50.6-3.1-13.7-0.7-39.2-1.8-56.6-2.5-17.5-0.7-88.2-1.5-157.2-1.7-69.1-0.2-132.1-0.1-140.2 0.1z"/><path class="b" d="m491.9 250.6c-2.6 0.3-10.6 1.4-17.6 2.4-7.1 1-19.7 3.6-28.1 5.6-8.3 2-20.4 5.6-26.8 8-6.3 2.4-15.4 6.2-20.1 8.5-4.7 2.4-12.2 6.5-16.7 9.3-4.6 2.8-8.3 5.3-8.2 5.7 0 0.3 3.7-0.1 8.2-0.9 4.5-0.8 12.6-1.5 17.9-1.5 5.4-0.1 14.7 0.8 20.8 1.8 6 1.1 16.4 3.7 23.1 6 6.7 2.2 18 6.9 25 10.4 7 3.6 19.6 10.6 28 15.6l15.3 9.2c5.6-3.4 14.9-8.8 24.3-14.2 9.4-5.4 23.7-12.7 31.7-16.2 8-3.5 20.1-7.9 26.8-9.8 11.1-3.1 13.9-3.4 31.9-3.5h19.8c-7-4.3-13.8-8-19.7-11-5.9-3-14.9-7.1-20.1-9.2-5.2-2.1-16.6-5.6-25.3-7.8-8.7-2.2-21.6-5-28.6-6-7.1-1.1-22.7-2.2-34.8-2.5-12-0.2-24.1-0.2-26.8 0.1zm-153.4 68.9c-3.3 2.3-10.5 9.2-15.9 15.4-5.4 6.3-13.2 16.1-17.4 22-4.2 5.8-11.9 19.1-17.2 29.5-5.5 10.9-11.8 26-15.1 35.9-3.1 9.4-6.8 22.1-8.2 28.3-1.3 6.2-3.3 18.3-4.3 26.8-1 8.6-1.8 21.3-1.8 28.4 0 7 0.8 19.9 1.8 28.6 1.1 8.7 3.3 22.2 5 29.9 1.7 7.7 5.5 21.1 8.4 29.8 2.8 8.7 7.8 21.6 10.9 28.7 3.2 7 8.5 17.4 11.8 23.1 3.4 5.7 9.3 14.7 13.1 19.9 3.8 5.3 7 9.1 7.2 8.6 0.3-0.6-0.1-3.9-0.9-7.5-0.7-3.5-1.3-12.5-1.3-20.1 0-7.5 0.8-18.6 1.9-24.7 1-6 3.2-15.9 5-21.9 1.7-6 5.4-17 8.3-24.4 2.9-7.3 8.7-20.2 12.8-28.6 4.2-8.4 10.2-19.6 13.2-25 3-5.3 11.7-19 19.2-30.4 7.5-11.4 21-30.6 30-42.7 9-12.1 22.2-29.5 29.4-38.7 7.2-9.2 13.4-17.4 13.7-18.3 0.4-0.8-7.4-9.4-18.6-20.3-10.5-10.4-24.7-23.2-31.4-28.5-6.7-5.3-15.2-11.6-18.9-14-3.7-2.3-10.8-6.2-15.8-8.6-5.1-2.3-11.4-4.5-14-4.7-4-0.4-6 0.2-10.9 3.5zm326.5-0.7c-4 1.6-11.2 5.3-15.9 8.1-4.7 2.8-13.7 9.1-20.1 13.9-6.3 4.8-17.6 14.2-25 20.9-7.3 6.7-17.1 16-21.7 20.6l-8.3 8.3c16.8 21.7 29.4 38.2 38.8 50.6 9.4 12.4 21.9 29.4 27.7 37.8 5.9 8.3 15.6 23.4 21.7 33.5 6 10 15.5 27.6 21.1 39 5.6 11.4 12.1 25.9 14.4 32.3 2.4 6.3 5.6 16.7 7.3 23.1 1.7 6.4 3.6 15.8 4.3 21 0.8 5.2 1.4 13.5 1.3 18.3 0 4.9-0.8 12.7-1.7 17.4-0.9 4.7-1.6 8.7-1.5 8.8 0.1 0.2 2.5-2.3 5.2-5.5 2.8-3.1 8.2-10.7 12.2-16.7 3.9-6.1 10.5-18.1 14.7-26.8 4.1-8.7 9.5-21.9 12-29.3 2.4-7.4 5.7-18.9 7.3-25.6 1.6-6.7 3.8-18.2 4.9-25.6 1-7.3 2.2-21 2.6-30.4 0.5-12 0.1-22-1.3-33.5-1.1-9.1-3.4-22.8-5.1-30.5-1.8-7.7-5.1-19.8-7.4-26.8-2.3-7-7.6-19.9-11.8-28.6-4.2-8.8-10.1-19.7-12.9-24.4-2.9-4.7-8.3-12.7-12-17.7-3.7-5-10.9-13.5-16-18.7-5.1-5.3-11.4-11.2-14.1-13.2q-4.9-3.5-9.1-3.4c-2.4 0-7.6 1.4-11.6 3.1zm-170.1 150c-9 7.8-28.4 26.4-43.2 41.1-14.8 14.8-31.8 32.7-37.9 39.7-6.1 7.1-15.1 18.1-20.1 24.4-4.9 6.4-12.9 17.4-17.7 24.4-4.7 7-12 18.5-16 25.6-4.1 7-9.3 17.4-11.6 23.1-2.3 5.7-5.1 14.4-6.2 19.2-1.1 4.9-2 12.6-2 17.1 0 4.5 0.6 10.1 1.4 12.5 0.8 2.3 3.1 6.4 5.2 9 2.1 2.6 8.2 8.2 13.5 12.3 5.4 4.2 12.8 9.5 16.5 11.8 3.7 2.3 11.9 7 18.3 10.4 6.3 3.4 18.1 8.8 26.2 11.9 8 3.2 20.6 7.3 28 9.2 7.4 1.8 18.6 4.3 25 5.4 6.3 1.1 18.9 2.3 28 2.7 9.5 0.4 22.6 0.1 31.1-0.7 8-0.8 21.3-2.8 29.5-4.4 8.2-1.7 20.8-5 28-7.4 7.2-2.4 20-7.7 28.4-11.7 8.4-4 21.5-11.4 29.2-16.6 7.7-5.1 17.7-12.9 22.1-17.3 4.4-4.3 9.3-10.4 10.9-13.4 2.3-4.5 2.8-7.4 2.8-15.8 0-6.9-0.9-13.7-2.7-20.2-1.5-5.3-5.6-15.7-9.2-23.1-3.6-7.4-12.6-22.5-19.9-33.5-7.3-11.1-17.2-25.1-21.9-31.1-4.7-6-15.6-18.9-24.2-28.6-8.7-9.7-22.6-24.8-31-33.4-8.4-8.6-22.9-22.7-32.3-31.2-9.4-8.6-19.8-17.9-23.1-20.6-3.4-2.8-6.7-5-7.4-5-0.7 0-8.7 6.4-17.7 14.2z"/></svg>